# xmcd
#
# Track frame offsets:
#	150
#	14790
#	31140
#	49853
#	67650
#	77274
#	92025
#	109120
#	124003
#	139559
#
# Disc length: 2042 seconds
#
# Revision: 1
# Processed by: cddbd v1.5.1PL0 Copyright (c) Steve Scherf et al.
# Submitted via: EasyCDDAExtractor 6.5.7.1
#
DISCID=7407f80a
DTITLE=Xirú Missioneiro - Pampa de 23
DYEAR=1998
DGENRE=Gaúcha
TTITLE0=Pampa de 23
TTITLE1=O Peão e a Professora
TTITLE2=Bailanta da Tia Fia
TTITLE3=Apenas Domador
TTITLE4=Pingo de Estimação
TTITLE5=O Bagual da Bossoróca
TTITLE6=Peste do Chifre
TTITLE7=O Rabo da Cumadre
TTITLE8=Fronteira Aberta
TTITLE9=Retoço de Gaita
EXTD=
EXTT0=
EXTT1=
EXTT2=
EXTT3=
EXTT4=
EXTT5=
EXTT6=
EXTT7=
EXTT8=
EXTT9=
PLAYORDER=
